<mxfile host="app.diagrams.net" agent="Mozilla/5.0 (Windows NT 10.0; Win64; x64) AppleWebKit/537.36 (KHTML, like Gecko) Chrome/139.0.0.0 Safari/537.36" version="28.2.0">
  <diagram id="C5RBs43oDa-KdzZeNtuy" name="Page-1">
    <mxGraphModel dx="1042" dy="658" grid="1" gridSize="10" guides="1" tooltips="1" connect="1" arrows="1" fold="1" page="1" pageScale="1" pageWidth="827" pageHeight="1169" math="0" shadow="0">
      <root>
        <mxCell id="WIyWlLk6GJQsqaUBKTNV-0" />
        <mxCell id="WIyWlLk6GJQsqaUBKTNV-1" parent="WIyWlLk6GJQsqaUBKTNV-0" />
        <mxCell id="fzbcMlYm_f0N74snjTD3-3" value="" style="edgeStyle=orthogonalEdgeStyle;rounded=0;orthogonalLoop=1;jettySize=auto;html=1;" edge="1" parent="WIyWlLk6GJQsqaUBKTNV-1" source="fzbcMlYm_f0N74snjTD3-1" target="fzbcMlYm_f0N74snjTD3-2">
          <mxGeometry relative="1" as="geometry" />
        </mxCell>
        <mxCell id="fzbcMlYm_f0N74snjTD3-1" value="Open" style="ellipse;whiteSpace=wrap;html=1;" vertex="1" parent="WIyWlLk6GJQsqaUBKTNV-1">
          <mxGeometry x="130" width="120" height="80" as="geometry" />
        </mxCell>
        <mxCell id="fzbcMlYm_f0N74snjTD3-5" value="" style="edgeStyle=orthogonalEdgeStyle;rounded=0;orthogonalLoop=1;jettySize=auto;html=1;" edge="1" parent="WIyWlLk6GJQsqaUBKTNV-1" source="fzbcMlYm_f0N74snjTD3-2" target="fzbcMlYm_f0N74snjTD3-4">
          <mxGeometry relative="1" as="geometry" />
        </mxCell>
        <mxCell id="fzbcMlYm_f0N74snjTD3-2" value="Enter ph no" style="shape=parallelogram;perimeter=parallelogramPerimeter;whiteSpace=wrap;html=1;fixedSize=1;" vertex="1" parent="WIyWlLk6GJQsqaUBKTNV-1">
          <mxGeometry x="130" y="170" width="120" height="60" as="geometry" />
        </mxCell>
        <mxCell id="fzbcMlYm_f0N74snjTD3-12" value="" style="edgeStyle=orthogonalEdgeStyle;rounded=0;orthogonalLoop=1;jettySize=auto;html=1;" edge="1" parent="WIyWlLk6GJQsqaUBKTNV-1" source="fzbcMlYm_f0N74snjTD3-4" target="fzbcMlYm_f0N74snjTD3-6">
          <mxGeometry relative="1" as="geometry" />
        </mxCell>
        <mxCell id="fzbcMlYm_f0N74snjTD3-4" value="Verify otp" style="rhombus;whiteSpace=wrap;html=1;" vertex="1" parent="WIyWlLk6GJQsqaUBKTNV-1">
          <mxGeometry x="150" y="300" width="80" height="80" as="geometry" />
        </mxCell>
        <mxCell id="fzbcMlYm_f0N74snjTD3-8" value="" style="edgeStyle=orthogonalEdgeStyle;rounded=0;orthogonalLoop=1;jettySize=auto;html=1;" edge="1" parent="WIyWlLk6GJQsqaUBKTNV-1" source="fzbcMlYm_f0N74snjTD3-6" target="fzbcMlYm_f0N74snjTD3-7">
          <mxGeometry relative="1" as="geometry" />
        </mxCell>
        <mxCell id="fzbcMlYm_f0N74snjTD3-6" value="Enter Address" style="shape=parallelogram;perimeter=parallelogramPerimeter;whiteSpace=wrap;html=1;fixedSize=1;" vertex="1" parent="WIyWlLk6GJQsqaUBKTNV-1">
          <mxGeometry x="130" y="410" width="120" height="60" as="geometry" />
        </mxCell>
        <mxCell id="fzbcMlYm_f0N74snjTD3-10" value="" style="edgeStyle=orthogonalEdgeStyle;rounded=0;orthogonalLoop=1;jettySize=auto;html=1;" edge="1" parent="WIyWlLk6GJQsqaUBKTNV-1" source="fzbcMlYm_f0N74snjTD3-7" target="fzbcMlYm_f0N74snjTD3-9">
          <mxGeometry relative="1" as="geometry" />
        </mxCell>
        <mxCell id="fzbcMlYm_f0N74snjTD3-7" value="Nearby restaurent" style="whiteSpace=wrap;html=1;" vertex="1" parent="WIyWlLk6GJQsqaUBKTNV-1">
          <mxGeometry x="130" y="510" width="120" height="60" as="geometry" />
        </mxCell>
        <mxCell id="fzbcMlYm_f0N74snjTD3-14" value="" style="edgeStyle=orthogonalEdgeStyle;rounded=0;orthogonalLoop=1;jettySize=auto;html=1;" edge="1" parent="WIyWlLk6GJQsqaUBKTNV-1" source="fzbcMlYm_f0N74snjTD3-9" target="fzbcMlYm_f0N74snjTD3-13">
          <mxGeometry relative="1" as="geometry" />
        </mxCell>
        <mxCell id="fzbcMlYm_f0N74snjTD3-9" value="Select restaurent" style="whiteSpace=wrap;html=1;" vertex="1" parent="WIyWlLk6GJQsqaUBKTNV-1">
          <mxGeometry x="130" y="650" width="120" height="60" as="geometry" />
        </mxCell>
        <mxCell id="fzbcMlYm_f0N74snjTD3-16" value="" style="edgeStyle=orthogonalEdgeStyle;rounded=0;orthogonalLoop=1;jettySize=auto;html=1;" edge="1" parent="WIyWlLk6GJQsqaUBKTNV-1" source="fzbcMlYm_f0N74snjTD3-13" target="fzbcMlYm_f0N74snjTD3-15">
          <mxGeometry relative="1" as="geometry" />
        </mxCell>
        <mxCell id="fzbcMlYm_f0N74snjTD3-13" value="Show Menu" style="whiteSpace=wrap;html=1;" vertex="1" parent="WIyWlLk6GJQsqaUBKTNV-1">
          <mxGeometry x="130" y="790" width="120" height="60" as="geometry" />
        </mxCell>
        <mxCell id="fzbcMlYm_f0N74snjTD3-18" value="" style="edgeStyle=orthogonalEdgeStyle;rounded=0;orthogonalLoop=1;jettySize=auto;html=1;" edge="1" parent="WIyWlLk6GJQsqaUBKTNV-1" source="fzbcMlYm_f0N74snjTD3-15" target="fzbcMlYm_f0N74snjTD3-17">
          <mxGeometry relative="1" as="geometry" />
        </mxCell>
        <mxCell id="fzbcMlYm_f0N74snjTD3-15" value="Add to Cart" style="whiteSpace=wrap;html=1;" vertex="1" parent="WIyWlLk6GJQsqaUBKTNV-1">
          <mxGeometry x="130" y="930" width="120" height="60" as="geometry" />
        </mxCell>
        <mxCell id="fzbcMlYm_f0N74snjTD3-17" value="Choose payment" style="rhombus;whiteSpace=wrap;html=1;" vertex="1" parent="WIyWlLk6GJQsqaUBKTNV-1">
          <mxGeometry x="150" y="1020" width="80" height="80" as="geometry" />
        </mxCell>
        <mxCell id="fzbcMlYm_f0N74snjTD3-19" value="Cash on delivery" style="shape=parallelogram;perimeter=parallelogramPerimeter;whiteSpace=wrap;html=1;fixedSize=1;" vertex="1" parent="WIyWlLk6GJQsqaUBKTNV-1">
          <mxGeometry x="50" y="1150" width="120" height="60" as="geometry" />
        </mxCell>
        <mxCell id="fzbcMlYm_f0N74snjTD3-20" value="UPI/Card" style="shape=parallelogram;perimeter=parallelogramPerimeter;whiteSpace=wrap;html=1;fixedSize=1;" vertex="1" parent="WIyWlLk6GJQsqaUBKTNV-1">
          <mxGeometry x="250" y="1150" width="120" height="60" as="geometry" />
        </mxCell>
        <mxCell id="fzbcMlYm_f0N74snjTD3-23" value="" style="edgeStyle=orthogonalEdgeStyle;rounded=0;orthogonalLoop=1;jettySize=auto;html=1;" edge="1" parent="WIyWlLk6GJQsqaUBKTNV-1" source="fzbcMlYm_f0N74snjTD3-21" target="fzbcMlYm_f0N74snjTD3-22">
          <mxGeometry relative="1" as="geometry" />
        </mxCell>
        <mxCell id="fzbcMlYm_f0N74snjTD3-21" value="Place order" style="rounded=0;whiteSpace=wrap;html=1;" vertex="1" parent="WIyWlLk6GJQsqaUBKTNV-1">
          <mxGeometry x="150" y="1260" width="120" height="60" as="geometry" />
        </mxCell>
        <mxCell id="fzbcMlYm_f0N74snjTD3-22" value="Order Confirmed" style="ellipse;whiteSpace=wrap;html=1;" vertex="1" parent="WIyWlLk6GJQsqaUBKTNV-1">
          <mxGeometry x="150" y="1380" width="120" height="80" as="geometry" />
        </mxCell>
        <mxCell id="fzbcMlYm_f0N74snjTD3-24" value="" style="endArrow=classic;html=1;rounded=0;entryX=0.395;entryY=-0.05;entryDx=0;entryDy=0;entryPerimeter=0;" edge="1" parent="WIyWlLk6GJQsqaUBKTNV-1" target="fzbcMlYm_f0N74snjTD3-21">
          <mxGeometry width="50" height="50" relative="1" as="geometry">
            <mxPoint x="140" y="1220" as="sourcePoint" />
            <mxPoint x="220" y="1140" as="targetPoint" />
          </mxGeometry>
        </mxCell>
        <mxCell id="fzbcMlYm_f0N74snjTD3-25" value="" style="endArrow=classic;html=1;rounded=0;exitX=0.167;exitY=1;exitDx=0;exitDy=0;exitPerimeter=0;" edge="1" parent="WIyWlLk6GJQsqaUBKTNV-1" source="fzbcMlYm_f0N74snjTD3-20">
          <mxGeometry width="50" height="50" relative="1" as="geometry">
            <mxPoint x="270" y="1220" as="sourcePoint" />
            <mxPoint x="240" y="1250" as="targetPoint" />
          </mxGeometry>
        </mxCell>
        <mxCell id="fzbcMlYm_f0N74snjTD3-26" value="" style="endArrow=classic;html=1;rounded=0;entryX=0.688;entryY=-0.057;entryDx=0;entryDy=0;entryPerimeter=0;" edge="1" parent="WIyWlLk6GJQsqaUBKTNV-1" source="fzbcMlYm_f0N74snjTD3-17" target="fzbcMlYm_f0N74snjTD3-19">
          <mxGeometry width="50" height="50" relative="1" as="geometry">
            <mxPoint x="130" y="1120" as="sourcePoint" />
            <mxPoint x="130" y="1140" as="targetPoint" />
            <Array as="points">
              <mxPoint x="150" y="1120" />
            </Array>
          </mxGeometry>
        </mxCell>
        <mxCell id="fzbcMlYm_f0N74snjTD3-27" value="" style="endArrow=classic;html=1;rounded=0;entryX=0.25;entryY=0;entryDx=0;entryDy=0;" edge="1" parent="WIyWlLk6GJQsqaUBKTNV-1" source="fzbcMlYm_f0N74snjTD3-17" target="fzbcMlYm_f0N74snjTD3-20">
          <mxGeometry width="50" height="50" relative="1" as="geometry">
            <mxPoint x="170" y="1190" as="sourcePoint" />
            <mxPoint x="270" y="1110" as="targetPoint" />
          </mxGeometry>
        </mxCell>
      </root>
    </mxGraphModel>
  </diagram>
</mxfile>
